<svg width="1600" height="756" viewBox="0 0 1600 756" fill="none" xmlns="http://www.w3.org/2000/svg">
<g clip-path="url(#clip0_103_35)">
<path d="M472.696 385.792C468.832 379.377 463.997 373.484 458.646 368.136C412.038 321.55 336.596 321.347 289.736 367.529L276.015 381.242C248.231 409.014 248.231 454.039 276.015 481.81C303.8 509.58 348.847 509.58 376.632 481.81L472.696 385.792Z" fill="#3D8252"/>
<path d="M534.872 663.745C633.948 564.719 652.73 415.83 591.225 297.897C584.328 284.677 574.986 272.933 564.75 262.085C517.943 215.295 442.043 215.295 395.23 262.085L289.736 367.529C336.596 321.347 412.038 321.55 458.646 368.136C469.088 378.573 477.564 391.083 480.695 405.507C492.632 460.488 476.971 520.484 434.257 563.178C367.575 629.827 259.461 629.827 192.779 563.178C126.096 496.528 126.096 388.466 192.779 321.816L313.517 201.135C369.086 145.594 369.086 55.5421 313.517 0L101.309 212.106L101.516 212.313C100.319 213.4 99.1041 214.527 97.8713 215.693C96.0099 217.454 94.1083 219.304 92.1624 221.249C-30.0889 343.441 -30.0884 541.555 92.1624 663.745C214.413 785.939 412.622 785.939 534.872 663.745Z" fill="#5AC379"/>
<path d="M751.364 310.456C751.364 294.453 756.581 281.93 767.016 272.885C777.684 263.608 794.032 258.97 816.06 258.97C830.902 258.97 844.929 260.941 858.147 264.884V288.539C844.467 284.133 830.435 281.93 816.06 281.93C801.684 281.93 791.364 284.481 785.103 289.583C779.076 294.453 776.06 301.874 776.06 311.847V445.78C776.06 464.565 787.19 473.958 809.451 473.958C824.06 473.958 834.494 471.523 840.755 466.652V379.683H865.451V482.307C848.989 491.584 831.016 496.222 811.538 496.222C771.424 496.222 751.364 479.756 751.364 446.823V310.456ZM1015.1 244.011H1039.45V304.542C1052.9 298.744 1066.35 295.845 1079.8 295.845C1093.48 295.845 1104.49 299.787 1112.84 307.673C1121.42 315.558 1125.71 326.922 1125.71 341.764V494.483H1101.01V344.2C1101.01 327.269 1092.55 318.805 1075.62 318.805C1063.8 318.805 1051.86 321.703 1039.8 327.502V494.483H1015.1V244.011ZM1287.51 438.127V448.563C1287.51 457.84 1289.71 464.681 1294.12 469.088C1298.52 473.494 1306.87 475.697 1319.16 475.697C1331.45 475.697 1343.05 471.175 1353.94 462.13V397.077L1314.29 408.209C1303.86 411.224 1296.79 414.934 1293.07 419.341C1289.36 423.748 1287.51 430.01 1287.51 438.127ZM1318.81 294.801C1358.23 294.801 1377.94 311.615 1377.94 345.243V494.483H1354.29V480.22C1342.46 490.656 1328.32 495.874 1311.86 495.874C1279.62 495.874 1263.51 479.988 1263.51 448.215V437.083C1263.51 412.964 1277.54 396.961 1305.6 389.076L1354.29 375.509V345.243C1354.06 335.735 1351.39 328.777 1346.29 324.371C1341.19 319.964 1330.87 317.761 1315.33 317.761C1300.03 317.761 1285.88 320.08 1272.9 324.719V301.411C1286.12 297.004 1301.42 294.801 1318.81 294.801ZM1535.79 284.713C1535.79 269.638 1539.85 258.042 1547.96 249.925C1556.08 241.576 1568.02 237.401 1583.79 237.401C1589.35 237.401 1594.57 237.749 1599.44 238.445V259.666C1595.96 258.738 1591.32 258.274 1585.53 258.274C1568.83 258.274 1560.48 266.971 1560.48 284.365V296.54H1597.35V317.761H1560.48V494.483H1535.79V317.761H1515.96V296.54H1535.79V284.713Z" fill="#5AC379"/>
</g>
<defs>
<clipPath id="clip0_103_35">
<rect width="1600" height="755.39" fill="white"/>
</clipPath>
</defs>
</svg>
