<?xml version="1.0" encoding="UTF-8" standalone="no"?>
<svg
   width="21.51"
   height="20.379198"
   viewBox="0 0 21.51 20.379198"
   fill="none"
   version="1.1"
   id="svg2"
   sodipodi:docname="icon_admin.svg"
   inkscape:version="1.3.2 (091e20e, 2023-11-25)"
   xmlns:inkscape="http://www.inkscape.org/namespaces/inkscape"
   xmlns:sodipodi="http://sodipodi.sourceforge.net/DTD/sodipodi-0.dtd"
   xmlns="http://www.w3.org/2000/svg"
   xmlns:svg="http://www.w3.org/2000/svg">
  <defs
     id="defs2" />
  <sodipodi:namedview
     id="namedview2"
     pagecolor="#505050"
     bordercolor="#eeeeee"
     borderopacity="1"
     inkscape:showpageshadow="0"
     inkscape:pageopacity="0"
     inkscape:pagecheckerboard="0"
     inkscape:deskcolor="#505050"
     inkscape:zoom="31.666667"
     inkscape:cx="10.736842"
     inkscape:cy="10.184211"
     inkscape:window-width="1392"
     inkscape:window-height="1212"
     inkscape:window-x="0"
     inkscape:window-y="25"
     inkscape:window-maximized="0"
     inkscape:current-layer="svg2" />
  <path
     fill-rule="evenodd"
     clip-rule="evenodd"
     d="m 7,10.189554 c 0,-2.0710401 1.67893,-3.7499701 3.75,-3.7499701 2.0711,0 3.75,1.67893 3.75,3.7499701 0,2.0711 -1.6789,3.75 -3.75,3.75 -2.07107,0 -3.75,-1.6789 -3.75,-3.75 z m 3.75,-2.2499701 c -1.2426,0 -2.25,1.00737 -2.25,2.2499701 0,1.2427 1.0074,2.25 2.25,2.25 1.2426,0 2.25,-1.0073 2.25,-2.25 0,-1.2426001 -1.0074,-2.2499701 -2.25,-2.2499701 z"
     fill="#ffffff"
     id="path1" />
  <path
     fill-rule="evenodd"
     clip-rule="evenodd"
     d="m 6.34248,0.33149386 c 1.15943,-0.68536 2.63012,-0.26489 3.30212,0.86462004 l 0.0045,0.00769 0.11,0.19 0.0016,0.00278 c 0.37,0.64546 0.7559,0.8005 0.9905,0.8005 0.2358,0 0.6249,-0.15669 0.9999,-0.80361 l 0.1098,-0.18967 0.0045,-0.00769 c 0.672,-1.12951004 2.1427,-1.54999004 3.3021,-0.86461004 l 1.7246,0.98689004 c 1.2726,0.72722 1.7042,2.3583 0.9773,3.61639 l -5e-4,9e-4 c -0.375,0.64687 -0.3161,1.06008 -0.1991,1.26317 0.1171,0.20321 0.445,0.46073 1.1902,0.46073 1.4516,0 2.65,1.18322 2.65,2.64997 v 1.7600001 c 0,1.4517 -1.1832,2.65 -2.65,2.65 -0.7452,0 -1.0731,0.2575 -1.1902,0.4607 -0.117,0.2031 -0.1759,0.6164 0.1991,1.2632 l 0.0023,0.004 c 0.7232,1.2656 0.2941,2.8855 -0.9791,3.6133 l -1.7247,0.987 c -1.1594,0.6853 -2.63,0.2648 -3.302,-0.8647 l -0.0045,-0.0077 -0.11,-0.19 -0.0016,-0.0028 c -0.37,-0.6454 -0.7559,-0.8005 -0.9906,-0.8005 -0.2357,0 -0.6248,0.1567 -0.9998,0.8036 l -0.1098,0.1897 -0.0045,0.0077 c -0.672,1.1295 -2.14261,1.55 -3.30203,0.8647 l -1.72508,-0.9872 c -1.27231,-0.7274 -1.70371,-2.3582 -0.97689,-3.6162 l 5.2e-4,-9e-4 c 0.37494,-0.6468 0.31609,-1.0601 0.19906,-1.2632 -0.1171,-0.2032 -0.44497,-0.4607 -1.19018,-0.4607 -1.46678,0 -2.65,-1.1983 -2.65,-2.65 V 9.3095539 c 0,-1.45162 1.18322,-2.64997 2.65,-2.64997 0.74521,0 1.07308,-0.25752 1.19018,-0.46073 0.11703,-0.20309 0.17588,-0.6163 -0.19906,-1.26317 l -5.2e-4,-9e-4 c -0.72682,-1.25795 -0.29502,-2.88906 0.9773,-3.61639 z M 8.35347,1.9597539 c -0.26767,-0.44595 -0.83138,-0.58467 -1.25,-0.33562 l -0.01096,0.0064 -1.73041,0.99023 c -0.54727,0.31273 -0.73574,1.02145 -0.42287,1.56332 0.53478,0.92297 0.67845,1.93449 0.20059,2.76372 -0.4779,0.82929 -1.42503,1.21178 -2.48982,1.21178 -0.63322,0 -1.15,0.52167 -1.15,1.14997 v 1.7600001 c 0,0.6284 0.51678,1.15 1.15,1.15 1.06479,0 2.01192,0.3825 2.48982,1.2118 0.47791,0.8293 0.33416,1.8409 -0.20073,2.764 -0.31267,0.5418 -0.12377,1.2506 0.42342,1.5633 l 1.73,0.99 0.01096,0.0064 c 0.41861,0.249 0.98231,0.1103 1.24998,-0.3356 l 0.10767,-0.186 c 0.53488,-0.9228 1.34088,-1.5514 2.29758,-1.5514 0.9575,0 1.7613,0.6294 2.2913,1.5533 l 7e-4,0.0012 0.1058,0.1829 c 0.2677,0.4459 0.8314,0.5846 1.25,0.3356 l 0.011,-0.0064 1.7304,-0.9903 c 0.5459,-0.3119 0.7372,-1.011 0.4219,-1.565 -0.534,-0.9225 -0.6772,-1.9333 -0.1996,-2.762 0.4779,-0.8293 1.425,-1.2118 2.4898,-1.2118 0.6332,0 1.15,-0.5216 1.15,-1.15 V 9.3095539 c 0,-0.6332 -0.5216,-1.14997 -1.15,-1.14997 -1.0648,0 -2.0119,-0.38249 -2.4898,-1.21178 -0.4779,-0.82925 -0.3342,-1.8408 0.2006,-2.76379 0.3128,-0.54186 0.1239,-1.25077 -0.4233,-1.56348 l -1.73,-0.99 -0.011,-0.0064 c -0.4186,-0.24905 -0.9823,-0.11033 -1.25,0.33562 l -0.1076,0.18593 c -0.5349,0.92281 -1.3409,1.5514 -2.2977,1.5514 -0.9573,0 -1.761,-0.62926 -2.29099,-1.55297 l -8.8e-4,-0.00154 z"
     fill="#ffffff"
     id="path2" />
</svg>
