<svg width="512" height="512" viewBox="0 0 512 512" fill="none" xmlns="http://www.w3.org/2000/svg">
<g clip-path="url(#clip0_20_1722)">
<path d="M256 512C397.385 512 512 397.385 512 256C512 114.615 397.385 0 256 0C114.615 0 0 114.615 0 256C0 397.385 114.615 512 256 512Z" fill="#5AC379"/>
<g filter="url(#filter0_d_20_1722)">
<path d="M347 87H164C152.954 87 144 95.9543 144 107V407C144 418.046 152.954 427 164 427H347C358.046 427 367 418.046 367 407V107C367 95.9543 358.046 87 347 87Z" fill="white"/>
</g>
<path d="M338 114H174C168.477 114 164 118.477 164 124V390C164 395.523 168.477 400 174 400H338C343.523 400 348 395.523 348 390V124C348 118.477 343.523 114 338 114Z" fill="#5AC379"/>
<path d="M233 102C233 99.7909 234.791 98 237 98H275C277.209 98 279 99.7909 279 102C279 104.209 277.209 106 275 106H237C234.791 106 233 104.209 233 102Z" fill="#5AC379"/>
<path d="M292.5 234H219.5C202.103 234 188 248.103 188 265.5C188 282.897 202.103 297 219.5 297H292.5C309.897 297 324 282.897 324 265.5C324 248.103 309.897 234 292.5 234Z" fill="white"/>
<path d="M288 246.5C288 229.103 273.897 215 256.5 215C239.103 215 225 229.103 225 246.5C225 263.897 239.103 278 256.5 278C273.897 278 288 263.897 288 246.5Z" fill="white"/>
</g>
<defs>
<filter id="filter0_d_20_1722" x="74" y="17" width="363" height="480" filterUnits="userSpaceOnUse" color-interpolation-filters="sRGB">
<feFlood flood-opacity="0" result="BackgroundImageFix"/>
<feColorMatrix in="SourceAlpha" type="matrix" values="0 0 0 0 0 0 0 0 0 0 0 0 0 0 0 0 0 0 127 0" result="hardAlpha"/>
<feOffset/>
<feGaussianBlur stdDeviation="35"/>
<feComposite in2="hardAlpha" operator="out"/>
<feColorMatrix type="matrix" values="0 0 0 0 0 0 0 0 0 0 0 0 0 0 0 0 0 0 0.05 0"/>
<feBlend mode="normal" in2="BackgroundImageFix" result="effect1_dropShadow_20_1722"/>
<feBlend mode="normal" in="SourceGraphic" in2="effect1_dropShadow_20_1722" result="shape"/>
</filter>
<clipPath id="clip0_20_1722">
<rect width="512" height="512" fill="white"/>
</clipPath>
</defs>
</svg>
