<svg width="512" height="512" viewBox="0 0 512 512" fill="none" xmlns="http://www.w3.org/2000/svg">
<path fill-rule="evenodd" clip-rule="evenodd" d="M65.1567 84.2769C25.9747 128.066 1.61987 185.44 0.000498568 248.479C7.76202 248.765 16.0779 248.628 24.9535 248.025C44.8543 246.671 66.5429 242.972 89.3481 236.917C68.7762 180.293 60.5354 126.802 65.1567 84.2769Z" fill="#379DFF"/>
<path fill-rule="evenodd" clip-rule="evenodd" d="M113.976 468.826C49.9262 425.819 6.35406 354.59 1.00179 272.911C30.0605 273.843 63.2722 269.443 98.537 259.853C107.846 282.292 119.035 305.056 132.072 327.673C145.133 350.332 159.248 371.455 174.026 390.778C148.108 416.563 127.701 443.161 113.976 468.826Z" fill="#379DFF"/>
<path fill-rule="evenodd" clip-rule="evenodd" d="M187.856 409.342C171.211 426.101 157.162 443.07 146.038 459.661C141.083 467.051 136.811 474.188 133.18 481.057C169.431 500.79 210.979 512 255.14 512C273.167 512 290.759 510.132 307.732 506.578C268.66 489.348 226.532 455.477 187.856 409.342Z" fill="#379DFF"/>
<path fill-rule="evenodd" clip-rule="evenodd" d="M512 262C504.259 261.718 495.966 261.856 487.117 262.457C467.172 263.814 445.431 267.527 422.569 273.606C443.129 330.228 451.356 383.714 446.719 426.228C485.952 382.448 510.352 325.061 512 262Z" fill="#379DFF"/>
<path fill-rule="evenodd" clip-rule="evenodd" d="M413.88 251.206C404.564 228.737 393.363 205.942 380.308 183.295C367.277 160.689 353.196 139.611 338.456 120.324C364.432 94.4949 384.879 67.847 398.62 42.1379C462.648 85.1722 506.189 156.418 511.505 238.106C482.419 237.179 449.177 241.594 413.88 251.206Z" fill="#379DFF"/>
<path fill-rule="evenodd" clip-rule="evenodd" d="M366.224 52.4576C355.082 69.0745 341.007 86.0707 324.327 102.856C285.599 56.6285 243.403 22.6977 204.275 5.46041C221.306 1.88171 238.961 0 257.055 0C301.257 0 342.84 11.2303 379.116 30.9977C375.477 37.886 371.194 45.0452 366.224 52.4576Z" fill="#379DFF"/>
<path fill-rule="evenodd" clip-rule="evenodd" d="M87.7138 125.562C89.8463 157.019 97.8131 192.937 111.65 230.671C144.683 219.971 179.492 204.597 214.204 184.524C248.871 164.477 279.533 142.003 305.281 118.732C279.567 87.8527 252.488 62.9758 226.349 45.3932C201.904 28.9503 180.216 20.0126 161.927 17.0552C137.726 26.5542 115.322 39.6403 95.3664 55.6603C88.8175 72.9871 85.7247 96.2197 87.7138 125.562Z" fill="#379DFF"/>
<path fill-rule="evenodd" clip-rule="evenodd" d="M398.84 280.921C365.852 291.62 331.096 306.977 296.437 327.02C261.733 347.088 231.041 369.589 205.276 392.886C230.959 423.708 258.001 448.542 284.105 466.1C308.532 482.531 330.206 491.468 348.486 494.432C372.695 484.949 395.107 471.878 415.072 455.872C421.631 438.541 424.73 415.296 422.74 385.932C420.609 354.502 412.654 318.62 398.84 280.921Z" fill="#379DFF"/>
<path fill-rule="evenodd" clip-rule="evenodd" d="M191.156 374.29C177.585 356.372 164.543 336.773 152.393 315.696C140.268 294.66 129.86 273.59 121.164 252.899C155.542 241.646 191.382 225.7 226.86 205.184C262.293 184.694 293.966 161.612 320.863 137.451C334.399 155.333 347.408 174.889 359.528 195.915C371.673 216.984 382.095 238.088 390.799 258.81C356.465 270.06 320.677 285.99 285.249 306.477C249.776 326.99 218.073 350.1 191.156 374.29Z" fill="#379DFF"/>
</svg>
