<?xml version="1.0" encoding="UTF-8" standalone="no"?>
<svg
   width="24.000004"
   height="28.970585"
   viewBox="0 0 24.000004 28.970585"
   fill="none"
   version="1.1"
   id="svg2"
   sodipodi:docname="Ghaf.svg"
   inkscape:version="1.3.2 (091e20e, 2023-11-25)"
   xmlns:inkscape="http://www.inkscape.org/namespaces/inkscape"
   xmlns:sodipodi="http://sodipodi.sourceforge.net/DTD/sodipodi-0.dtd"
   xmlns="http://www.w3.org/2000/svg"
   xmlns:svg="http://www.w3.org/2000/svg">
  <defs
     id="defs2" />
  <sodipodi:namedview
     id="namedview2"
     pagecolor="#505050"
     bordercolor="#eeeeee"
     borderopacity="1"
     inkscape:showpageshadow="0"
     inkscape:pageopacity="0"
     inkscape:pagecheckerboard="0"
     inkscape:deskcolor="#505050"
     inkscape:zoom="19"
     inkscape:cx="12.052632"
     inkscape:cy="14.973684"
     inkscape:window-width="1392"
     inkscape:window-height="1212"
     inkscape:window-x="0"
     inkscape:window-y="25"
     inkscape:window-maximized="0"
     inkscape:current-layer="svg2" />
  <path
     d="m 10.562436,18.47826 c -1.0650997,-1.065 -1.0650997,-2.7919 0,-3.8569 l 4.5699,-4.5699 c 1.7944,-1.7945 4.7039,-1.7945 6.4983,0 l 0.2037,1.0118 -7.415,7.415 c -1.065,1.0651 -2.7919,1.0651 -3.8569,0 z"
     fill="#5ac379"
     id="path1" />
  <path
     d="m 20.485236,25.45586 c 3.7979,-3.7979 4.5179,-9.508 2.1601,-14.031 -0.2643,-0.507 -0.6224,-0.9574 -1.0147,-1.3734 -1.7944,-1.7945 -4.7039,-1.7945 -6.4983,0 l -4.044,4.0439 c 1.7963,-1.7711 4.6883,-1.7634 6.4749,0.0233 0.4003,0.4003 0.7252,0.8801 0.8452,1.4333 0.4576,2.1086 -0.1427,4.4096 -1.7801,6.0469 -2.5562,2.5562 -6.7004997,2.5562 -9.2566997,0 -2.5561,-2.5561 -2.5561,-6.7005 0,-9.2566 l 4.6283997,-4.6284 c 2.1301,-2.1301 2.1301,-5.58373 0,-7.71386 l -8.1346997,8.13466 0.0079,0.0079 c -0.0459,0.0417 -0.0924,0.0849 -0.1397,0.1296 -0.0713,0.0676 -0.1442,0.1385 -0.2188,0.2131 -4.68632,4.6863 -4.68631,12.2843 0,16.9706 4.6863,4.6863 12.2841997,4.6863 16.9704997,0 z"
     fill="#ffffff"
     id="path2" />
</svg>
