<?xml version="1.0" encoding="UTF-8" standalone="no"?>
<svg
   width="38"
   height="38"
   viewBox="0 0 38 38"
   fill="none"
   version="1.1"
   id="svg4"
   sodipodi:docname="Launhpad.svg"
   inkscape:version="1.3.2 (091e20e, 2023-11-25)"
   xmlns:inkscape="http://www.inkscape.org/namespaces/inkscape"
   xmlns:sodipodi="http://sodipodi.sourceforge.net/DTD/sodipodi-0.dtd"
   xmlns="http://www.w3.org/2000/svg"
   xmlns:svg="http://www.w3.org/2000/svg">
  <defs
     id="defs4" />
  <sodipodi:namedview
     id="namedview4"
     pagecolor="#505050"
     bordercolor="#eeeeee"
     borderopacity="1"
     inkscape:showpageshadow="0"
     inkscape:pageopacity="0"
     inkscape:pagecheckerboard="0"
     inkscape:deskcolor="#505050"
     inkscape:zoom="19"
     inkscape:cx="19"
     inkscape:cy="18.973684"
     inkscape:window-width="1392"
     inkscape:window-height="1212"
     inkscape:window-x="0"
     inkscape:window-y="25"
     inkscape:window-maximized="0"
     inkscape:current-layer="svg4" />
  <rect
     x="0"
     y="0"
     width="38"
     height="38"
     rx="4"
     fill="#000000"
     fill-opacity="0.24"
     id="rect1" />
  <path
     d="M 29.8333,15.52 V 10.98 C 29.8333,9.57 29.14,9 27.4175,9 H 23.0408 C 21.3183,9 20.625,9.57 20.625,10.98 v 4.53 c 0,1.42 0.6933,1.98 2.4158,1.98 h 4.3767 c 1.7225,0.01 2.4158,-0.56 2.4158,-1.97 z"
     stroke="#ffffff"
     stroke-width="1.5"
     stroke-linecap="round"
     stroke-linejoin="round"
     id="path1" />
  <path
     d="m 29.8333,26.77 v -4.04 c 0,-1.59 -0.6933,-2.23 -2.4158,-2.23 h -4.3767 c -1.7225,0 -2.4158,0.64 -2.4158,2.23 v 4.04 c 0,1.59 0.6933,2.23 2.4158,2.23 h 4.3767 c 1.7225,0 2.4158,-0.64 2.4158,-2.23 z"
     stroke="#ffffff"
     stroke-width="1.5"
     stroke-linecap="round"
     stroke-linejoin="round"
     id="path2" />
  <path
     d="M 17.3743,15.52 V 10.98 C 17.3743,9.57 16.681,9 14.9585,9 H 10.5818 C 8.85935,9 8.16602,9.57 8.16602,10.98 v 4.53 c 0,1.42 0.69333,1.98 2.41578,1.98 h 4.3767 c 1.7225,0.01 2.4158,-0.56 2.4158,-1.97 z"
     fill="#5ac379"
     stroke="#ffffff"
     stroke-width="1.5"
     stroke-linecap="round"
     stroke-linejoin="round"
     id="path3" />
  <path
     d="m 17.3743,26.77 v -4.04 c 0,-1.59 -0.6933,-2.23 -2.4158,-2.23 h -4.3767 c -1.72245,0 -2.41578,0.64 -2.41578,2.23 v 4.04 c 0,1.59 0.69333,2.23 2.41578,2.23 h 4.3767 c 1.7225,0 2.4158,-0.64 2.4158,-2.23 z"
     stroke="#ffffff"
     stroke-width="1.5"
     stroke-linecap="round"
     stroke-linejoin="round"
     id="path4" />
</svg>
