<svg width="512" height="512" viewBox="0 0 512 512" fill="none" xmlns="http://www.w3.org/2000/svg">
<g clip-path="url(#clip0_20_1714)">
<path d="M256 511.002C397.385 511.002 512 396.61 512 255.501C512 114.392 397.385 0 256 0C114.615 0 0 114.392 0 255.501C0 396.61 114.615 511.002 256 511.002Z" fill="#F34235"/>
<g filter="url(#filter0_d_20_1714)">
<path d="M123.279 153.948C122.845 117.908 151.109 88.0078 187.185 86.3459L253.22 83.3041C273.33 82.3777 292.793 90.5261 306.223 105.495L353.5 158.191L376.376 181.022C388.941 193.563 396 210.572 396 228.306V354.308C396 391.239 366.003 421.177 329 421.177H192.699C156.01 421.177 126.145 391.727 125.704 355.112L123.279 153.948Z" fill="#F34235"/>
<path fill-rule="evenodd" clip-rule="evenodd" d="M290.842 75.8518H178C138.236 75.8518 106 108.025 106 147.711V362.292C106 401.979 138.235 434.152 178 434.152H333C372.764 434.152 405 401.979 405 362.292V189.787L290.842 75.8518ZM310 200.608H385V362.292C385 385.443 356.196 414.191 333 414.191H178C154.804 414.191 126 385.443 126 362.292V147.711C126 124.561 154.804 95.8128 178 95.8128H280V170.667C280 187.203 293.431 200.608 310 200.608Z" fill="white"/>
<path d="M194.01 264.602H180.729V284.827C180.729 287.718 180.045 289.911 178.678 291.406C177.311 292.9 175.585 293.647 173.502 293.647C171.321 293.647 169.563 292.916 168.229 291.454C166.894 289.96 166.227 287.783 166.227 284.923V229.856C166.227 226.672 166.959 224.398 168.424 223.033C169.889 221.669 172.216 220.986 175.406 220.986H194.01C199.511 220.986 203.743 221.409 206.705 222.254C209.635 223.065 212.158 224.414 214.273 226.298C216.422 228.182 218.049 230.489 219.156 233.218C220.263 235.947 220.816 239.017 220.816 242.428C220.816 249.706 218.57 255.229 214.078 258.998C209.586 262.734 202.896 264.602 194.01 264.602ZM190.494 231.854H180.729V253.686H190.494C193.912 253.686 196.76 253.329 199.039 252.614C201.35 251.899 203.108 250.729 204.312 249.105C205.517 247.481 206.119 245.353 206.119 242.721C206.119 239.57 205.191 237.003 203.336 235.021C201.253 232.91 196.972 231.854 190.494 231.854Z" fill="white"/>
<path d="M241.91 220.986H260.807C265.722 220.986 269.938 221.441 273.453 222.351C276.969 223.261 280.159 224.967 283.023 227.468C290.478 233.835 294.205 243.517 294.205 256.513C294.205 260.802 293.831 264.716 293.082 268.257C292.333 271.798 291.178 274.999 289.615 277.857C288.053 280.684 286.051 283.218 283.609 285.46C281.689 287.182 279.589 288.562 277.311 289.602C275.032 290.642 272.574 291.373 269.938 291.795C267.333 292.217 264.387 292.429 261.1 292.429H242.203C239.566 292.429 237.581 292.039 236.246 291.259C234.911 290.447 234.033 289.326 233.609 287.897C233.219 286.435 233.023 284.55 233.023 282.244V229.856C233.023 226.737 233.723 224.479 235.123 223.082C236.523 221.685 238.785 220.986 241.91 220.986ZM247.525 232.439V280.928H258.512C260.921 280.928 262.809 280.862 264.176 280.733C265.543 280.603 266.959 280.279 268.424 279.759C269.889 279.239 271.158 278.507 272.232 277.565C277.083 273.472 279.508 266.422 279.508 256.415C279.508 249.365 278.434 244.085 276.285 240.577C274.169 237.068 271.549 234.842 268.424 233.9C265.299 232.926 261.523 232.439 257.096 232.439H247.525Z" fill="white"/>
<path d="M349.723 232.147H321.158V250.421H345.035C347.249 250.421 348.893 250.925 349.967 251.932C351.074 252.906 351.627 254.222 351.627 255.879C351.627 257.536 351.074 258.851 349.967 259.826C348.86 260.802 347.216 261.289 345.035 261.289H321.158V284.827C321.158 287.816 320.475 290.04 319.107 291.503C317.773 292.933 316.048 293.647 313.932 293.647C311.783 293.647 310.025 292.916 308.658 291.454C307.324 289.993 306.656 287.783 306.656 284.827V229.856C306.656 227.776 306.965 226.087 307.584 224.788C308.202 223.456 309.163 222.497 310.465 221.913C311.799 221.295 313.492 220.986 315.543 220.986H349.723C352.034 220.986 353.743 221.506 354.85 222.545C355.989 223.553 356.559 224.885 356.559 226.541C356.559 228.231 355.989 229.596 354.85 230.635C353.743 231.643 352.034 232.147 349.723 232.147Z" fill="white"/>
</g>
</g>
<defs>
<filter id="filter0_d_20_1714" x="36" y="5.85181" width="439" height="498.3" filterUnits="userSpaceOnUse" color-interpolation-filters="sRGB">
<feFlood flood-opacity="0" result="BackgroundImageFix"/>
<feColorMatrix in="SourceAlpha" type="matrix" values="0 0 0 0 0 0 0 0 0 0 0 0 0 0 0 0 0 0 127 0" result="hardAlpha"/>
<feOffset/>
<feGaussianBlur stdDeviation="35"/>
<feComposite in2="hardAlpha" operator="out"/>
<feColorMatrix type="matrix" values="0 0 0 0 0 0 0 0 0 0 0 0 0 0 0 0 0 0 0.2 0"/>
<feBlend mode="normal" in2="BackgroundImageFix" result="effect1_dropShadow_20_1714"/>
<feBlend mode="normal" in="SourceGraphic" in2="effect1_dropShadow_20_1714" result="shape"/>
</filter>
<clipPath id="clip0_20_1714">
<rect width="512" height="512" fill="white"/>
</clipPath>
</defs>
</svg>
