<svg width="24" height="24" viewBox="0 0 24 24" fill="none" xmlns="http://www.w3.org/2000/svg">
<path d="M2.45845 8.9532C8.24842 4.48174 15.7517 4.48174 21.5416 8.9532C21.8694 9.20638 22.3405 9.14586 22.5936 8.81803C22.8468 8.4902 22.7863 8.01919 22.4585 7.76602C16.1284 2.87747 7.87165 2.87747 1.54162 7.76602C1.21379 8.01919 1.15327 8.4902 1.40644 8.81803C1.65962 9.14586 2.13062 9.20638 2.45845 8.9532Z" fill="white"/>
<path d="M5.3683 12.4333C9.39829 9.32173 14.6116 9.32173 18.6416 12.4333C18.9695 12.6864 19.4405 12.6258 19.6936 12.298C19.9467 11.9701 19.8862 11.4991 19.5583 11.246C14.9883 7.71749 9.02161 7.71749 4.4516 11.246C4.12374 11.4991 4.06316 11.9701 4.3163 12.298C4.56944 12.6258 5.04044 12.6864 5.3683 12.4333Z" fill="white"/>
<path d="M16.7407 16.0826C13.861 13.852 10.1289 13.852 7.24923 16.0826C6.92177 16.3362 6.45068 16.2764 6.19703 15.9489C5.94337 15.6215 6.00321 15.1504 6.33067 14.8967C9.75105 12.2473 14.2389 12.2473 17.6592 14.8967C17.9867 15.1504 18.0465 15.6215 17.7929 15.9489C17.5392 16.2764 17.0681 16.3362 16.7407 16.0826Z" fill="white"/>
<path d="M9.85831 19.7432C11.1683 18.7317 12.8416 18.7317 14.1516 19.7432C14.4794 19.9964 14.9504 19.9358 15.2036 19.608C15.4567 19.2801 15.3962 18.8091 15.0683 18.556C13.2183 17.1275 10.7916 17.1275 8.94157 18.556C8.61371 18.8091 8.55316 19.2801 8.80631 19.608C9.05946 19.9358 9.53046 19.9964 9.85831 19.7432Z" fill="white"/>
</svg>
